<?xml version="1.0" encoding="utf-8"?>
<!-- Generator: Adobe Illustrator 19.0.0, SVG Export Plug-In . SVG Version: 6.00 Build 0)  -->
<svg version="1.1" id="Í_xBC__xB2_ã_x5F_1" xmlns="http://www.w3.org/2000/svg" xmlns:xlink="http://www.w3.org/1999/xlink"
	 x="0px" y="0px" viewBox="0 0 753.1 704.7" style="enable-background:new 0 0 753.1 704.7;" xml:space="preserve">
<style type="text/css">
	.st0{fill:url(#SVGID_1_);}
	.st1{fill:#FFFFFF;}
	.st2{fill:#CEDDDC;}
	.st3{fill:#B11116;}
	.st4{fill:#ED1C24;}
	.st5{fill:#004159;}
	.st6{fill:#E8CF97;}
	.st7{fill:#002C41;}
	.st8{fill:#806946;}
</style>
<g>
	
		<radialGradient id="SVGID_1_" cx="1492.2512" cy="12932.6777" r="176.9665" fx="1493.7412" fy="12932.4971" gradientTransform="matrix(0 3.09 2.5878 0 -33089.207 -4261.9375)" gradientUnits="userSpaceOnUse">
		<stop  offset="0" style="stop-color:#CEDDDC"/>
		<stop  offset="0.4516" style="stop-color:#CBDBDA"/>
		<stop  offset="0.6278" style="stop-color:#C1D5D6"/>
		<stop  offset="0.7559" style="stop-color:#B2CCCE"/>
		<stop  offset="0.8608" style="stop-color:#9CBEC4"/>
		<stop  offset="0.9503" style="stop-color:#81ADB6"/>
		<stop  offset="1" style="stop-color:#6EA2AC"/>
	</radialGradient>
	<rect class="st0" width="753.1" height="704.7"/>
	<g>
		<g>
			<path class="st1" d="M80.2,492.8c1.5,0,3,0.1,4.4,0.3c2.5-2.4,6.9-4.1,11.9-4.1c5.1,0,9.6,1.7,12.1,4.3c2.8-0.8,5.9-1.3,9.2-1.3
				c6.2,0,11.8,1.6,15.8,4.2c2.2-0.6,4.6-1,7.1-1c9.5,0,17.3,4.9,17.3,10.9c0,6-7.7,10.9-17.3,10.9c-2.5,0-4.9-0.3-7.1-1
				c-4,2.6-9.7,4.2-15.8,4.2c-2.2,0-4.3-0.2-6.3-0.6c-2.5,1.4-5.8,2.3-9.4,2.3c-4.2,0-7.9-1.1-10.5-3c-3.3,1.3-7.3,2-11.5,2
				c-12.3,0-22.3-6.3-22.3-14.1C57.9,499.2,67.9,492.8,80.2,492.8z"/>
		</g>
		<g>
			<path class="st1" d="M634.6,487.1c1.2,0,2.5,0.1,3.6,0.2c2.1-2,5.7-3.4,9.8-3.4c4.3,0,8,1.4,10,3.6c2.3-0.7,4.9-1,7.7-1
				c5.1,0,9.8,1.3,13.1,3.4c1.8-0.5,3.8-0.8,5.9-0.8c7.9,0,14.3,4,14.3,9c0,5-6.4,9-14.3,9c-2.1,0-4.1-0.3-5.9-0.8
				c-3.4,2.1-8,3.4-13.1,3.4c-1.8,0-3.5-0.2-5.2-0.5c-2.1,1.2-4.8,1.9-7.8,1.9c-3.5,0-6.6-0.9-8.7-2.4c-2.8,1-6,1.7-9.5,1.7
				c-10.2,0-18.5-5.2-18.5-11.7C616.1,492.4,624.4,487.1,634.6,487.1z"/>
		</g>
		<g>
			<path class="st1" d="M504.6,520.4c-0.2-0.7-0.2-1.4-0.1-2.1c0.6-5.9,10.2-10.1,21.4-9.2c6.7,0.5,12.5,2.7,15.9,5.7
				c1.4-0.2,2.9-0.2,4.4-0.1c6.7,0.5,11.8,4,11.4,7.8c0,0.1,0,0.3-0.1,0.4c2.7,0.6,4.5,1.9,4.3,3.4c-0.2,1.7-3.2,3-6.6,2.7
				c-1.6-0.1-3-0.5-4-1.1c-1.9,0.5-4.2,0.7-6.5,0.6c-1.6-0.1-3.2-0.4-4.6-0.9c-4,2.3-10,3.5-16.6,3c-4.7-0.4-9-1.6-12.3-3.3
				c-1.5,0.8-3.7,1.1-6.1,1c-4.3-0.3-7.6-2.4-7.4-4.5C497.9,521.8,500.9,520.4,504.6,520.4z"/>
		</g>
	</g>
	<polygon class="st2" points="618.5,644.3 425.7,650.5 304.4,642.8 211.7,636.2 515.7,622 	"/>
	<g>
		<path class="st3" d="M556.3,345.9l12.7,0.4l0.4-11.1l-12.7-0.4l3.9-34.2l29.1,4.2l0.5-15L520,222.3l2.6-36l9.2,0.3l0.7-21.8
			l-75.1-2.5l0,0l-64.7-62.2l-83.3,70l1.3-37.9l-36.2-1.2l-2.4,70.5l-88.8,74.6l-0.4,11.9l29.2,1l-1.8,89.5l-1.9,100.2l-0.4,12.3
			l347.4,0.3l0.7-21.1L556.3,345.9z M500.2,344l-2.9,86.8l-44.2-7.7l2.5-73.7L500.2,344z M408.4,214.9l-2.3,42.3l-29.6,1.1l1.7-49.8
			L408.4,214.9z M329.7,425.1l-44.4-1.5l2.2-65.4l39.1-7.9L329.7,425.1z"/>
		<path class="st4" d="M555.4,372.4l0.9-26.4l12.7,0.4l0.4-11.1l-12.7-0.4l-13.3,112.5L497.8,413l-0.6,17.8l-44.2-7.7l1.5-42.7
			l-111.5-84l-128.5,7.4l-3.3,73.5l-2,90.6l-0.5,10.7l250.9-11.9l96.5,12.6L555.4,372.4z M285.3,423.6l2.2-65.4l39.1-7.9l3,74.8
			L285.3,423.6z"/>
	</g>
	<g>
		<polygon class="st5" points="473.3,590.8 454.1,528.9 423.5,502.3 470.6,476.2 468.2,473 423.2,484.3 375.8,484.3 371.3,487.7 
			344.8,493 334,491.7 329.1,490.9 321.2,491 333.5,503 350.8,508.3 401.3,538.9 355.8,572.4 396.2,629.9 401.3,628 384.1,582.8 
			429.6,558.9 460.6,599.7 508.6,611 511.5,606.3 		"/>
		<polygon class="st6" points="471.6,475 482.5,471.5 484,462.3 480.2,461.4 475.5,465.7 470.7,470.5 		"/>
		<polygon class="st7" points="415.1,504.4 423.2,502.5 441.4,517.9 		"/>
		<polygon class="st7" points="429.6,558.9 453.5,546 473.3,590.8 508.6,611 460.6,599.7 		"/>
		<polygon class="st7" points="508.6,613.3 505.7,621 500.2,625.8 510,625.2 517.8,614.6 515,611.3 		"/>
		<polygon class="st7" points="396.5,631.4 380.1,639.9 389.6,641.1 402.5,638.4 402.6,634.2 		"/>
		<g>
			<polygon class="st1" points="363.4,507.7 362.2,512.4 363.2,515.7 364.5,553.3 369.2,560.5 369.6,550.7 365.7,515.5 366.2,510.5 
							"/>
			<g>
				<polygon class="st6" points="344.6,486.3 363.5,482.8 365.9,506.2 347.6,507.7 				"/>
				<g>
					<g>
						<path class="st8" d="M344.4,493.2l1.8-1.2c-1-1.5-3.3-6.1-1.6-8.5c3.2-4.4,7.5-3.9,12-3.5c4.1,0.4,8.3,0.9,11.3-2.6l-1.6-1.4
							c-2.3,2.6-5.7,2.3-9.5,1.9c-4.7-0.5-10-1.1-14,4.3C339.9,486.4,344.2,493,344.4,493.2z"/>
					</g>
					<g>
						<path class="st8" d="M363.8,487.7c0.4-0.5,4.1-4.5,4.8-7.5l-2.1-0.5c-0.5,2.1-3.2,5.4-4.3,6.5L363.8,487.7z"/>
					</g>
				</g>
				<polygon class="st8" points="350.9,492 352.5,500.9 348.9,500 348.6,492.4 				"/>
			</g>
		</g>
	</g>
</g>
</svg>
